<mxfile host="app.diagrams.net" modified="2023-12-20T00:23:37.915Z" agent="Mozilla/5.0 (Windows NT 10.0; Win64; x64) AppleWebKit/537.36 (KHTML, like Gecko) Chrome/120.0.0.0 Safari/537.36" version="22.1.11" etag="_eAqUGtnh9YDkO91yxKX" type="github">
  <diagram name="Page-1" id="Vn9yZ2KqIg3Pp_ybauzM">
    <mxGraphModel>
      <root>
        <mxCell id="0" />
        <mxCell id="1" parent="0" />
      </root>
    </mxGraphModel>
  </diagram>
</mxfile>
